<?xml version="1.0" standalone="no"?><!DOCTYPE svg PUBLIC "-//W3C//DTD SVG 1.1//EN" "http://www.w3.org/Graphics/SVG/1.1/DTD/svg11.dtd"><svg t="1613905574471" class="icon" viewBox="0 0 1024 1024" version="1.1" xmlns="http://www.w3.org/2000/svg" p-id="4034" xmlns:xlink="http://www.w3.org/1999/xlink" width="200" height="200"><defs><style type="text/css"></style></defs><path d="M529.536 103.168a112.426667 112.426667 0 0 1 154.453333 32.512l157.013334 236.373333A112.938667 112.938667 0 0 1 938.666667 484.096v341.504A112.853333 112.853333 0 0 1 826.026667 938.666667H359.68a112.853333 112.853333 0 0 1-112.682667-113.066667v-57.258667l-147.2-262.570666a113.28 113.28 0 0 1 37.461334-150.613334l392.277333-251.989333zM247.04 642.56v-158.464a112.853333 112.853333 0 0 1 112.64-113.066667h406.869333l-133.632-201.130666a51.114667 51.114667 0 0 0-70.186666-14.762667L170.410667 407.04a51.498667 51.498667 0 0 0-17.066667 68.48L247.04 642.56z m112.64-209.834667c-28.288 0-51.2 22.997333-51.2 51.370667v341.504c0 28.373333 22.912 51.413333 51.2 51.413333h466.346667c28.288 0 51.2-23.04 51.2-51.413333v-341.504c0-28.373333-22.912-51.370667-51.2-51.370667H359.68z m323.712 102.912a30.890667 30.890667 0 0 1-13.738667 41.386667l-210.090666 105.386667a30.677333 30.677333 0 0 1-41.216-13.781334 30.890667 30.890667 0 0 1 13.738666-41.386666l210.090667-105.386667a30.677333 30.677333 0 0 1 41.216 13.781333z m83.413333 104.234667a30.890667 30.890667 0 0 1-11.946666 41.941333l-189.098667 105.386667a30.677333 30.677333 0 0 1-41.770667-11.946667 30.890667 30.890667 0 0 1 11.946667-41.941333l189.056-105.386667a30.677333 30.677333 0 0 1 41.813333 11.946667z" p-id="4035" fill="#e6e6e6"></path></svg>