<?xml version="1.0" standalone="no"?><!DOCTYPE svg PUBLIC "-//W3C//DTD SVG 1.1//EN" "http://www.w3.org/Graphics/SVG/1.1/DTD/svg11.dtd"><svg t="1613905518093" class="icon" viewBox="0 0 1080 1024" version="1.1" xmlns="http://www.w3.org/2000/svg" p-id="2740" data-spm-anchor-id="a313x.7781069.0.i5" xmlns:xlink="http://www.w3.org/1999/xlink" width="210.9375" height="200"><defs><style type="text/css"></style></defs><path d="M265.216 920.348444a41.472 41.472 0 0 1-41.415111-42.211555v-215.608889a42.154667 42.154667 0 1 1 83.512889 0v215.608889a42.097778 42.097778 0 0 1-42.097778 42.211555z m207.701333 0a41.472 41.472 0 0 1-41.358222-42.211555V536.689778a42.097778 42.097778 0 0 1 83.512889 0v340.764444a42.097778 42.097778 0 0 1-42.097778 42.894222z m207.758223 0a41.472 41.472 0 0 1-41.358223-42.211555V728.177778a42.097778 42.097778 0 0 1 83.512889 0v149.959111a42.097778 42.097778 0 0 1-42.097778 42.211555z m207.758222 0a41.472 41.472 0 0 1-41.415111-42.211555v-276.48a42.154667 42.154667 0 1 1 83.569777 0v279.950222a42.097778 42.097778 0 0 1-42.097777 38.684445zM210.659556 502.101333a41.415111 41.415111 0 0 1-33.792-16.554666 42.211556 42.211556 0 0 1 10.353777-58.766223l300.202667-231.537777a42.723556 42.723556 0 0 1 51.768889 0l138.069333 112.64 222.947556-185.969778a41.756444 41.756444 0 0 1 53.816889 63.601778l-247.808 208.782222a41.358222 41.358222 0 0 1-53.134223 0L515.072 280.917333 238.933333 493.112889a42.723556 42.723556 0 0 1-28.273777 8.988444z" fill="#ffffff" p-id="2741"></path><path d="M927.118222 336.896a42.097778 42.097778 0 0 1-42.097778-41.472V179.313778h-117.361777a42.154667 42.154667 0 0 1 0-83.626667h159.459555a42.097778 42.097778 0 0 1 42.097778 41.415111v158.321778a42.097778 42.097778 0 0 1-42.097778 41.528889z" fill="#ffffff" p-id="2742"></path></svg>