<?xml version="1.0" standalone="no"?><!DOCTYPE svg PUBLIC "-//W3C//DTD SVG 1.1//EN" "http://www.w3.org/Graphics/SVG/1.1/DTD/svg11.dtd"><svg t="1613905715963" class="icon" viewBox="0 0 1024 1024" version="1.1" xmlns="http://www.w3.org/2000/svg" p-id="8673" xmlns:xlink="http://www.w3.org/1999/xlink" width="200" height="200"><defs><style type="text/css"></style></defs><path d="M923.5 337.6c-22.6-53.4-54.9-101.3-96-142.5-41.2-41.2-89.1-73.5-142.5-96-55.3-23.4-114-35.2-174.5-35.2S391.3 75.8 336 99.1c-53.4 22.6-101.3 54.9-142.5 96-41.2 41.2-73.5 89.1-96 142.5-23.4 55.3-35.2 114-35.2 174.5s11.9 119.2 35.2 174.5c22.6 53.4 54.9 101.3 96 142.5 41.2 41.2 89.1 73.5 142.5 96 55.3 23.4 114 35.2 174.5 35.2s119.2-11.9 174.5-35.2c53.4-22.6 101.3-54.9 142.5-96 41.2-41.2 73.5-89.1 96-142.5 23.4-55.3 35.2-114 35.2-174.5s-11.8-119.2-35.2-174.5zM442.8 911c-155.9-25.5-305.6-175.2-331.1-331.1-45.1-275.8 191-511.8 466.7-466.7 155.9 25.4 305.6 175.1 331.1 331C954.6 720 718.6 956 442.8 911z" p-id="8674" fill="#ffffff"></path><path d="M424 345.5c2.6 6 6.1 11.4 10.3 16.2 1.5 1.7 3.8 2.7 6.1 2.7h111.5c1.6 0 3.2-0.5 4.5-1.4 2.6-1.7 4.6-3.3 6-4.7 6.4-5.5 10.4-11.3 11.9-17.3 0.2-0.6 0.2-1.3 0.2-1.9v-87.5c0-0.4 0-0.9-0.1-1.3-0.5-2.8-1.1-5.1-1.9-6.8-5.3-11.5-15.2-18.5-29.7-20.8-0.4-0.1-0.9-0.1-1.4-0.1h-91.3c-0.8 0-1.5 0.1-2.3 0.3-2.3 0.6-4.2 1.2-5.6 1.5-0.5 0.1-0.9 0.3-1.3 0.5-11.1 4.9-17.8 13.3-20.1 25.3-0.1 0.5-0.1 1.1-0.1 1.6v82.9c0 0.9 0.1 1.8 0.4 2.6 1.1 3.4 2.1 6.2 2.9 8.2z m16.9-76.4c0-1.3 0.3-2.6 0.9-3.7 0.3-0.7 0.6-1.2 0.9-1.7 0.2-0.4 0.4-0.8 0.7-1.1 3.8-5.3 9.4-9 16.7-11.3 0.8-0.2 1.5-0.3 2.3-0.3h69.8c1.3 0 2.5 0.3 3.7 0.9l9.9 5c2.8 1.4 4.5 4.2 4.5 7.3V331c0 3.1-1.8 5.9-4.5 7.3l-9.9 5c-1.1 0.6-2.4 0.9-3.7 0.9h-69.4c-1.1 0-2.1-0.2-3.1-0.6-2.8-1.1-5-2.3-6.5-3.4-5.9-4.2-9.8-9.2-11.8-15-0.3-0.8-0.4-1.6-0.4-2.4l-0.1-53.7zM384.2 574.9c-3.5-7.1-8.1-13.1-13.7-18.2-1.5-1.3-3.5-2.1-5.5-2.1h-68.5c-1 0-1.9-0.2-2.8-0.5-3.3-1.2-5.8-2.4-7.3-3.6-5.5-3.8-9.2-8.8-11.2-15.1-0.2-0.7-0.3-1.5-0.3-2.3v-98.7c0-1 0.2-1.9 0.5-2.8 1.2-3.3 2.4-5.8 3.6-7.3 3.8-5.5 8.8-9.2 15.1-11.1 0.7-0.2 1.5-0.3 2.3-0.3h46.4c0.7 0 1.3-0.1 2-0.2 10.7-2.6 18-5.2 22-7.9 7-4.3 11.4-10.8 13.3-19.4 0.1-0.6 0.2-1.2 0.2-1.7V252.6c0-1.1-0.2-2.3-0.7-3.3-2.3-5.3-4.5-9.4-6.5-12.2-0.1-0.2-0.3-0.4-0.4-0.6-7.6-9.3-17.2-13.9-28.8-13.9h-82c-2.2 0-4.3 0.9-5.8 2.4-0.7 0.7-1.1 1.2-1.3 1.6-2.3 3.6-3.4 7-3.4 10.1 0 3.3 1.6 6.2 5 8.6 1.4 1 3.1 1.6 4.8 1.6h80.2c1.6 0 3.2 0.5 4.5 1.4l6.4 4.3c2.3 1.5 3.6 4.1 3.6 6.8v116.1c0 3.1-1.8 5.9-4.5 7.3l-9.9 5c-1.1 0.6-2.4 0.9-3.7 0.9h-57.6c-0.8 0-1.7 0.1-2.5 0.4-5.2 1.7-9.1 3.4-11.6 5-8.4 6.2-13.5 15-15.4 26.3-0.1 0.5-0.1 0.9-0.1 1.4v123.8c0 0.7 0.1 1.4 0.3 2 1.3 4.9 2.5 8.6 3.8 11.1 3.5 7.1 8.1 13.1 13.7 18.2 1.5 1.3 3.5 2.1 5.5 2.1h67.6c1.6 0 3.1 0.4 4.5 1.3 5.2 3.4 8.8 7.6 11 12.5 2.5 5.6 3.7 12 3.7 19.2 0 5.9-0.5 11.7-1.3 17.5-2.2 14.7-3.3 23.3-3.4 26v0.6c-3.6 37.2-6 59.3-7.4 66.5-4.8 23.2-14.1 43.7-27.9 61.3-0.8 1-1.8 1.9-3 2.4-2.6 1.2-5.4 1.7-8.2 1.7-5.9 0-12.8-2.5-20.9-7.4-17.1-10.4-27.5-15.5-31-15.5-6.4 0-11.8 3.8-16.3 11.3-1.7 2.9-1.4 6.6 0.7 9.3 6.5 7.9 15.1 14.3 25.7 19.3 12.6 5.8 25.4 8.8 38.5 8.8 13.5 0 24.7-3.3 33.7-9.8 8.9-6.4 14.3-16.5 16.1-30.2 0-0.4 0.1-0.7 0.2-1.1 5.8-20.5 10.2-37.4 13.3-50.8 9-39.4 15.2-77.6 18.9-114.3V588c0-0.7-0.1-1.4-0.3-2-1.4-4.8-2.7-8.5-3.9-11.1zM619 348.8c3.6 6.5 8.4 11.3 14.2 14.5 1.2 0.7 2.6 1 4 1h113.1c1.6 0 3.2-0.5 4.5-1.4 2.6-1.7 4.6-3.3 6-4.7 6.1-6.1 10.1-13.2 11.9-21.4 0.1-0.6 0.2-1.2 0.2-1.9v-78.4c0-1.2-0.2-2.3-0.7-3.4-2.4-5.5-4.7-9.7-6.7-12.5-7.2-9.4-16.9-14.2-29-14.2h-85c-10.8 0-19.6 2.8-26.3 8.4-6.8 5.6-10.1 13.6-10.1 24v79.5c0 1 0.2 2.1 0.6 3.1 1 3.1 2.2 5.5 3.3 7.4z m16.2-79.7c0-1.3 0.3-2.6 0.9-3.7 0.3-0.7 0.6-1.2 0.9-1.7 0.2-0.4 0.4-0.8 0.7-1.1 3.8-5.3 9.4-9 16.7-11.3 0.7-0.2 1.5-0.3 2.3-0.3h77.9c1.3 0 2.5 0.3 3.7 0.9l9.9 5c2.8 1.4 4.5 4.2 4.5 7.3V331c0 3.1-1.8 5.9-4.5 7.3l-9.9 5c-1.1 0.6-2.4 0.9-3.7 0.9H657c-1.1 0-2.1-0.2-3.1-0.6-2.8-1.1-5-2.3-6.5-3.4-5.9-4.2-9.8-9.2-11.8-15-0.3-0.8-0.4-1.6-0.4-2.4v-53.7zM786.6 696.9c-0.9-0.3-1.8-0.4-2.7-0.4H619.1c-4.5 0-8.2-3.7-8.2-8.2v-44.4c0-4.5 3.7-8.2 8.2-8.2h108.7c0.4 0 0.7 0 1.1-0.1 6.9-0.9 12.1-2 15.7-3.3 10.4-3.8 18.2-10 23.2-18.9 0.7-1.3 1.1-2.7 1.1-4.1V428.5c0-2.2-0.9-4.3-2.4-5.8l-11.4-11.4c-1.5-1.5-3.6-2.4-5.8-2.4h-301c-2.2 0-4.3 0.9-5.8 2.4l-11.4 11.4c-1.5 1.5-2.4 3.6-2.4 5.8v188.4c0 1.8 0.6 3.6 1.7 5s2.1 2.5 3.1 3.1c7.6 7.2 15.5 10.8 23.6 10.8h121.4c4.5 0 8.2 3.7 8.2 8.2v44.4c0 4.5-3.7 8.2-8.2 8.2H414.2c-1.1 0-2.1 0.2-3.1 0.6-1 0.4-1.8 0.8-2.5 1.1-0.5 0.2-0.9 0.5-1.3 0.8-2.3 1.8-3.4 4.1-3.4 7 0 1.8 0.7 4 2.1 6.6 1.4 2.6 4.2 4.2 7.1 4.2h165.5c4.5 0 8.2 3.7 8.2 8.2v97.5c0 2.8 1.3 5.4 3.7 6.8 0.1 0.1 0.2 0.1 0.4 0.2 3.1 1.8 6.1 2.7 8.8 2.7 4.5 0 8.1-2.8 10.7-8.4 0.5-1.1 0.8-2.3 0.8-3.5V725c0-4.5 3.7-8.2 8.2-8.2h174c0.9-0.4 1.3-0.9 1.3-1.3 0.4-1.4 0.7-3.8 0.7-7.4-0.2-5.6-3.1-9.3-8.8-11.2zM610.9 437.3c0-4.5 3.7-8.2 8.2-8.2h103.6c1 0 2.1 0.2 3 0.6l13.6 5.5c3.1 1.2 5.2 4.3 5.2 7.6V502c0 4.5-3.7 8.2-8.2 8.2H619.1c-4.5 0-8.2-3.7-8.2-8.2v-64.7z m0 101.3c0-4.5 3.7-8.2 8.2-8.2h117.3c4.5 0 8.2 3.7 8.2 8.2v59.6c0 3.1-1.8 5.9-4.5 7.3l-9.9 5c-1.1 0.6-2.4 0.9-3.7 0.9H619.1c-4.5 0-8.2-3.7-8.2-8.2v-64.6z m-24.3 64.6c0 4.5-3.7 8.2-8.2 8.2H466.1c-0.6 0-1.1-0.1-1.7-0.2-1.8-0.4-4.2-0.8-7.3-1.2-2.9-0.4-5.1-1.8-6.9-4.5-0.8-1.3-1.2-2.8-1.2-4.3v-62.7c0-4.5 3.7-8.2 8.2-8.2h121.3c4.5 0 8.2 3.7 8.2 8.2v64.7z m0-101.2c0 4.5-3.7 8.2-8.2 8.2H457.1c-4.5 0-8.2-3.7-8.2-8.2v-59.6c0-3.1 1.8-5.9 4.5-7.3l9.9-5c1.1-0.6 2.4-0.9 3.7-0.9h111.4c4.5 0 8.2 3.7 8.2 8.2V502z" p-id="8675" fill="#ffffff"></path></svg>