<?xml version="1.0" standalone="no"?><!DOCTYPE svg PUBLIC "-//W3C//DTD SVG 1.1//EN" "http://www.w3.org/Graphics/SVG/1.1/DTD/svg11.dtd"><svg t="1613905854380" class="icon" viewBox="0 0 1024 1024" version="1.1" xmlns="http://www.w3.org/2000/svg" p-id="11958" xmlns:xlink="http://www.w3.org/1999/xlink" width="200" height="200"><defs><style type="text/css"></style></defs><path d="M891.15136 942.08h-247.19872a30.44352 30.44352 0 0 1-30.44352-30.4384v-151.41888H442.22976v151.41888A30.44352 30.44352 0 0 1 411.78112 942.08H122.60864A30.44352 30.44352 0 0 1 92.16 911.6416V349.7472a30.44352 30.44352 0 0 1 14.44352-25.89184L490.87488 86.4256a30.45888 30.45888 0 0 1 32.01024 0l384.27136 237.42464A30.44864 30.44864 0 0 1 921.6 349.7472v561.8944a30.44352 30.44352 0 0 1-30.44864 30.4384z m-216.75008-60.8768h186.30656V366.71488L506.88 148.10624l-353.82784 218.624V881.2032H381.3376v-151.424a30.44352 30.44352 0 0 1 30.44864-30.4384h232.17152a30.44352 30.44352 0 0 1 30.44864 30.4384v151.424z" fill="#ffffff" p-id="11959"></path><path d="M287.06816 611.90656H226.21696v-206.848l203.17184-117.4016 30.47424 52.61824-172.79488 99.84v171.79136z" fill="#ffffff" p-id="11960"></path></svg>