<?xml version="1.0" standalone="no"?><!DOCTYPE svg PUBLIC "-//W3C//DTD SVG 1.1//EN" "http://www.w3.org/Graphics/SVG/1.1/DTD/svg11.dtd"><svg t="1613905593162" class="icon" viewBox="0 0 1024 1024" version="1.1" xmlns="http://www.w3.org/2000/svg" p-id="4937" xmlns:xlink="http://www.w3.org/1999/xlink" width="200" height="200"><defs><style type="text/css"></style></defs><path d="M512 209.454545a209.454545 209.454545 0 0 1 209.454545 209.454546v248.552727a91.694545 91.694545 0 0 0 17.454546 53.992727l33.047273 46.545455H252.043636l33.047273-46.545455a91.694545 91.694545 0 0 0 17.454546-53.992727V418.909091a209.454545 209.454545 0 0 1 209.454545-209.454546m0-69.818181a279.272727 279.272727 0 0 0-279.272727 279.272727v248.552727a23.272727 23.272727 0 0 1-4.421818 13.498182l-59.345455 83.316364A46.545455 46.545455 0 0 0 206.894545 837.818182h610.21091a46.545455 46.545455 0 0 0 37.934545-73.541818l-59.345455-83.316364a23.272727 23.272727 0 0 1-4.421818-13.498182V418.909091A279.272727 279.272727 0 0 0 512 139.636364zM535.272727 116.363636h-46.545454a34.909091 34.909091 0 0 1 0-69.818181h46.545454a34.909091 34.909091 0 0 1 0 69.818181zM593.454545 954.181818h-139.636363a34.909091 34.909091 0 0 1 0-69.818182h139.636363a34.909091 34.909091 0 0 1 0 69.818182z" p-id="4938" fill="#ffffff"></path></svg>