<?xml version="1.0" standalone="no"?><!DOCTYPE svg PUBLIC "-//W3C//DTD SVG 1.1//EN" "http://www.w3.org/Graphics/SVG/1.1/DTD/svg11.dtd"><svg t="1613905637722" class="icon" viewBox="0 0 1024 1024" version="1.1" xmlns="http://www.w3.org/2000/svg" p-id="5737" xmlns:xlink="http://www.w3.org/1999/xlink" width="200" height="200"><defs><style type="text/css"></style></defs><path d="M408.8 491.5h-129c-47 0-85.3-38.2-85.3-85.3v-129c0-47 38.2-85.3 85.3-85.3h129c47 0 85.3 38.2 85.3 85.3v129c-0.1 47.1-38.3 85.3-85.3 85.3z m-129-242.7c-15.7 0-28.4 12.7-28.4 28.4v129c0 15.7 12.7 28.4 28.4 28.4h129c15.7 0 28.4-12.7 28.4-28.4v-129c0-15.7-12.7-28.4-28.4-28.4h-129zM744.2 491.5h-129c-47 0-85.3-38.2-85.3-85.3v-129c0-47 38.2-85.3 85.3-85.3h129c47 0 85.3 38.2 85.3 85.3v129c0 47.1-38.3 85.3-85.3 85.3z m-129-242.7c-15.7 0-28.4 12.7-28.4 28.4v129c0 15.7 12.7 28.4 28.4 28.4h129c15.7 0 28.4-12.7 28.4-28.4v-129c0-15.7-12.7-28.4-28.4-28.4h-129zM408.8 832h-129c-47 0-85.3-38.2-85.3-85.3v-129c0-47 38.2-85.3 85.3-85.3h129c47 0 85.3 38.2 85.3 85.3v129c-0.1 47.1-38.3 85.3-85.3 85.3z m-129-242.7c-15.7 0-28.4 12.7-28.4 28.4v129c0 15.7 12.7 28.4 28.4 28.4h129c15.7 0 28.4-12.7 28.4-28.4v-129c0-15.7-12.7-28.4-28.4-28.4h-129zM744.2 832h-129c-47 0-85.3-38.2-85.3-85.3v-129c0-47 38.2-85.3 85.3-85.3h129c47 0 85.3 38.2 85.3 85.3v129c0 47.1-38.3 85.3-85.3 85.3z m-129-242.7c-15.7 0-28.4 12.7-28.4 28.4v129c0 15.7 12.7 28.4 28.4 28.4h129c15.7 0 28.4-12.7 28.4-28.4v-129c0-15.7-12.7-28.4-28.4-28.4h-129z" p-id="5738" fill="#ffffff"></path></svg>