<?xml version="1.0" standalone="no"?><!DOCTYPE svg PUBLIC "-//W3C//DTD SVG 1.1//EN" "http://www.w3.org/Graphics/SVG/1.1/DTD/svg11.dtd"><svg t="1613905724613" class="icon" viewBox="0 0 1024 1024" version="1.1" xmlns="http://www.w3.org/2000/svg" p-id="9523" xmlns:xlink="http://www.w3.org/1999/xlink" width="200" height="200"><defs><style type="text/css"></style></defs><path d="M274.88 957.28 274.88 776.96l-78.4 0c-89.76 0-162.88-73.12-162.88-162.88L33.6 242.88c0-89.76 73.12-162.88 162.88-162.88l631.2 0c89.76 0 162.88 73.12 162.88 162.88l0 371.36c0 89.76-73.12 162.88-162.88 162.88L533.92 777.12 274.88 957.28zM196.32 108.64c-73.92 0-134.08 60.16-134.08 134.08l0 371.36c0 73.92 60.16 134.08 134.08 134.08l107.2 0 0 153.92 221.28-153.92 302.72 0c73.92 0 134.08-60.16 134.08-134.08L961.6 242.88c0-73.92-60.16-134.08-134.08-134.08L196.32 108.8z" p-id="9524" fill="#ffffff"></path><path d="M252.16 363.52l519.84 0c10.24 0 18.56-8.32 18.56-18.56s-8.32-18.56-18.56-18.56L252.16 326.4c-10.24 0-18.56 8.32-18.56 18.56S241.76 363.52 252.16 363.52zM771.84 474.88 252.16 474.88c-10.24 0-18.56 8.32-18.56 18.56 0 10.24 8.32 18.56 18.56 18.56l519.84 0c10.24 0 18.56-8.32 18.56-18.56C790.56 483.2 782.24 474.88 771.84 474.88z" p-id="9525" fill="#ffffff"></path></svg>