<?xml version="1.0" standalone="no"?><!DOCTYPE svg PUBLIC "-//W3C//DTD SVG 1.1//EN" "http://www.w3.org/Graphics/SVG/1.1/DTD/svg11.dtd"><svg t="1613905673907" class="icon" viewBox="0 0 1024 1024" version="1.1" xmlns="http://www.w3.org/2000/svg" p-id="7344" xmlns:xlink="http://www.w3.org/1999/xlink" width="200" height="200"><defs><style type="text/css"></style></defs><path d="M143.6 357.5l358 181c3.3 1.6 6.8 2.5 10.4 2.5s7.1-0.8 10.4-2.5l358-181c7.7-3.9 12.6-11.9 12.6-20.5s-4.9-16.6-12.6-20.5l-358-181c-6.5-3.3-14.2-3.3-20.8 0l-358 181c-7.7 3.9-12.6 11.9-12.6 20.5s4.9 16.6 12.6 20.5zM512 181.8L819 337 512 492.2 205 337l307-155.2z" p-id="7345" fill="#ffffff"></path><path d="M143.6 533.5l358 181c3.3 1.6 6.8 2.5 10.4 2.5s7.1-0.8 10.4-2.5l358-181c11.3-5.7 15.9-19.6 10.1-30.9s-19.6-15.9-30.9-10.1L512 668.2 164.4 492.5c-11.3-5.7-25.2-1.2-30.9 10.1-5.8 11.4-1.2 25.2 10.1 30.9z" p-id="7346" fill="#ffffff"></path><path d="M859.6 674.5L512 850.2 164.4 674.5c-11.3-5.7-25.2-1.2-30.9 10.1-5.7 11.3-1.2 25.2 10.1 30.9l358 181c3.3 1.6 6.8 2.5 10.4 2.5s7.1-0.8 10.4-2.5l358-181c11.3-5.7 15.9-19.6 10.1-30.9-5.7-11.3-19.5-15.9-30.9-10.1z" p-id="7347" fill="#ffffff"></path></svg>